<svg xmlns="http://www.w3.org/2000/svg" xmlns:xlink="http://www.w3.org/1999/xlink" width="39.679" height="19.341" viewBox="0 0 39.679 19.341">
  <defs>
    <radialGradient id="radial-gradient" cx="0.292" cy="0.219" r="0.799" gradientTransform="translate(0 -0.19) scale(1 2.096)" gradientUnits="objectBoundingBox">
      <stop offset="0" stop-color="#9bcff0"/>
      <stop offset="0.071" stop-color="#97ceed"/>
      <stop offset="0.157" stop-color="#88c8ee"/>
      <stop offset="0.252" stop-color="#71c3eb"/>
      <stop offset="0.351" stop-color="#52b8e7"/>
      <stop offset="0.455" stop-color="#1ea8e0"/>
      <stop offset="0.5" stop-color="#21a1db"/>
      <stop offset="1" stop-color="#2f79b7"/>
    </radialGradient>
  </defs>
  <g id="Group_1296" data-name="Group 1296" transform="translate(0.743 0.5)">
    <path id="Path_1458" data-name="Path 1458" d="M38.25,8,.044,8l0,18.337,38.205,0V22.769a1.454,1.454,0,0,0,.227-.844,1.306,1.306,0,0,0-.227-.84" transform="translate(-0.044 -8)" stroke="rgba(0,0,0,0)" stroke-width="1" fill="url(#radial-gradient)"/>
    <path id="Path_1459" data-name="Path 1459" d="M3.49,13.877l-.735-1.791-.731,1.791m17.658-.715a.992.992,0,0,1-.531.093h-1.3v-1h1.322a1.1,1.1,0,0,1,.509.081.411.411,0,0,1,.226.4A.459.459,0,0,1,19.682,13.162Zm9.306.713-.744-1.791-.738,1.791Zm-17.347,1.94h-1.1l0-3.519L8.979,15.815H8.036L6.475,12.293v3.521H4.291l-.414-1H1.642l-.416,1H.059l1.923-4.493H3.577L5.4,15.576V11.322H7.156l1.406,3.047,1.29-3.047H11.64v4.493Zm4.387,0H12.441V11.321h3.587v.935H13.515v.81h2.453v.921H13.515v.9h2.514Zm5.058-3.283a1.265,1.265,0,0,1-.757,1.2,1.246,1.246,0,0,1,.531.378,1.29,1.29,0,0,1,.178.824v.882H19.955l0-.567a1.35,1.35,0,0,0-.17-.876c-.157-.158-.4-.192-.783-.192H17.846v1.634H16.772V11.321h2.47a2.526,2.526,0,0,1,1.3.215A1.047,1.047,0,0,1,21.086,12.531ZM22.8,15.813h-1.1V11.32h1.1Zm12.712,0H33.994L31.959,12.44v3.372H29.772l-.418-1h-2.23l-.405,1H25.461a2.259,2.259,0,0,1-1.557-.5,2.262,2.262,0,0,1-.573-1.715,2.39,2.39,0,0,1,.579-1.757,2.178,2.178,0,0,1,1.631-.524h1.04v.963H25.562a1.033,1.033,0,0,0-.826.266,1.481,1.481,0,0,0-.309,1.018,1.559,1.559,0,0,0,.3,1.055,1.037,1.037,0,0,0,.749.232h.481l1.513-3.533h1.609l1.819,4.249v-4.25h1.634l1.888,3.129V11.319h1.1v4.493ZM.047,16.7H1.881l.414-1h.926l.413,1h3.61v-.763l.322.767H9.44l.322-.778V16.7h8.972l0-1.638H18.9c.121,0,.157.016.157.216V16.7H23.7v-.381a3.685,3.685,0,0,0,1.722.381h1.952l.418-1h.925l.409,1h3.762v-.947l.569.947h3.015V10.428H33.49v.74l-.418-.74H30.011v.74l-.383-.74H25.492A3.706,3.706,0,0,0,23.7,10.8V10.43H20.847V10.8a1.768,1.768,0,0,0-1.213-.366l-10.424,0-.7,1.618-.719-1.618H4.507v.74l-.361-.74h-2.8l-1.3,2.98V16.7Z" transform="translate(-0.044 -8.201)" fill="#fff" stroke="rgba(0,0,0,0)" stroke-width="1"/>
    <path id="Path_1460" data-name="Path 1460" d="M38.94,20.707H36.983a.74.74,0,0,0-.435.081.351.351,0,0,0-.157.324.339.339,0,0,0,.235.335,1.225,1.225,0,0,0,.414.05l.582.016a1.7,1.7,0,0,1,1.219.361.586.586,0,0,1,.1.112m0,1.684a1.674,1.674,0,0,1-1.457.575H35.409v-.964h2.065a.61.61,0,0,0,.435-.111.4.4,0,0,0,.127-.293.367.367,0,0,0-.132-.3.541.541,0,0,0-.378-.1c-1.009-.034-2.266.032-2.266-1.39,0-.652.414-1.338,1.54-1.338H38.94v-.894H36.952a2.245,2.245,0,0,0-1.344.367v-.367H32.669a2.034,2.034,0,0,0-1.283.368v-.367H26.137v.367a2.8,2.8,0,0,0-1.448-.367H21.226v.367a2.448,2.448,0,0,0-1.513-.367H15.837l-.887.96-.83-.959H8.332v6.27h5.68l.913-.975.861.975,3.5,0V23.657h.344a3.656,3.656,0,0,0,1.5-.22v1.692h2.888V23.495h.139c.178,0,.2.007.2.184v1.449h8.773a2.5,2.5,0,0,0,1.461-.4v.4h2.783a3.723,3.723,0,0,0,1.575-.29V23.67Zm-4.284-1.795a1.251,1.251,0,0,1,.322.952c0,.967-.6,1.418-1.687,1.418H31.2v-.963h2.083a.629.629,0,0,0,.438-.112.4.4,0,0,0,.127-.293.388.388,0,0,0-.131-.3.57.57,0,0,0-.382-.1c-1-.034-2.262.031-2.262-1.391,0-.651.409-1.338,1.535-1.338h2.153v.956h-1.97a.726.726,0,0,0-.431.082.377.377,0,0,0,.074.658,1.235,1.235,0,0,0,.418.051l.578.016A1.727,1.727,0,0,1,34.656,21.875Zm-9.69-.277a1.027,1.027,0,0,1-.53.093h-1.3V20.682h1.322a1.059,1.059,0,0,1,.513.081.427.427,0,0,1,.222.4A.483.483,0,0,1,24.966,21.6Zm.648.559a1.171,1.171,0,0,1,.526.377,1.314,1.314,0,0,1,.178.821v.89H25.242v-.562c0-.271.026-.67-.174-.879-.157-.161-.4-.2-.788-.2H23.132v1.641H22.053V19.752h2.479a2.659,2.659,0,0,1,1.292.212,1.051,1.051,0,0,1,.552,1A1.258,1.258,0,0,1,25.615,22.157Zm1.356-2.405h3.585v.93H28.041V21.5h2.453v.916H28.041v.894l2.515,0v.933H26.972Zm-7.245,2.074H18.339V20.682h1.4c.387,0,.657.158.657.551S20.139,21.826,19.726,21.826ZM17.27,23.838l-1.649-1.83,1.648-1.773Zm-4.258-.527h-2.64v-.894h2.357V21.5H10.372v-.817h2.692l1.175,1.31Zm8.537-2.077c0,1.248-.931,1.506-1.87,1.506h-1.34v1.508H16.252l-1.322-1.487-1.374,1.488H9.3V19.754h4.319l1.321,1.473,1.366-1.473h3.431C20.591,19.753,21.549,19.989,21.549,21.233Z" transform="translate(-0.731 -8.901)" fill="#fff" stroke="rgba(0,0,0,0)" stroke-width="1"/>
  </g>
</svg>