<svg xmlns="http://www.w3.org/2000/svg" width="26.414" height="19.34" viewBox="0 0 26.414 19.34">
  <g id="Group_1282" data-name="Group 1282" transform="translate(0.5 0.5)">
    <path id="Path_1374" data-name="Path 1374" d="M229.49,1.471a3.279,3.279,0,0,0-3.5,3.453v6.325a1.877,1.877,0,0,0,1.879,1.335,1.664,1.664,0,0,0,1.751-1.654V7.768h2.772v3.161c0,1.751-2.238,2.675-3.891,2.675a4.434,4.434,0,0,1-2.512-.768v6.975h4.426a3.528,3.528,0,0,0,3.355-3.356V1.471Z" transform="translate(-225.988 -1.471)" fill="#08569d" stroke="rgba(0,0,0,0)" stroke-width="1"/>
    <g id="Group_1281" data-name="Group 1281" transform="translate(17.632 0)">
      <path id="Path_1375" data-name="Path 1375" d="M262.016,14.42a.957.957,0,0,0-.925-.924h-1.9v1.849h1.9A.957.957,0,0,0,262.016,14.42Z" transform="translate(-257.828 -6.616)" fill="#309747" stroke="rgba(0,0,0,0)" stroke-width="1"/>
      <path id="Path_1376" data-name="Path 1376" d="M260.309,1.471a3.279,3.279,0,0,0-3.5,3.453V7.767h5.16a1.362,1.362,0,1,1,0,2.724,1.376,1.376,0,0,1,1.459,1.313,1.376,1.376,0,0,1-1.459,1.313h-5.16v6.693h4.426a3.53,3.53,0,0,0,3.357-3.356V1.471Z" transform="translate(-256.807 -1.471)" fill="#309747" stroke="rgba(0,0,0,0)" stroke-width="1"/>
      <path id="Path_1377" data-name="Path 1377" d="M259.194,19.425h1.946a.924.924,0,0,0,0-1.848h-1.946Z" transform="translate(-257.828 -8.363)" fill="#309747" stroke="rgba(0,0,0,0)" stroke-width="1"/>
    </g>
    <path id="Path_1378" data-name="Path 1378" d="M244.794,1.471a3.279,3.279,0,0,0-3.5,3.453V8.452a2.657,2.657,0,0,1,1.772-.685h4.669V8.74a15.526,15.526,0,0,0-2.724-.388,2.091,2.091,0,0,0,0,4.183,14.552,14.552,0,0,0,2.724-.341v.924h-4.669a2.66,2.66,0,0,1-1.772-.685v7.378h4.426a3.529,3.529,0,0,0,3.357-3.356V1.471Z" transform="translate(-232.536 -1.471)" fill="#b21f38" stroke="rgba(0,0,0,0)" stroke-width="1"/>
  </g>
</svg>