<svg id="Group_1219" data-name="Group 1219" xmlns="http://www.w3.org/2000/svg" width="20" height="20" viewBox="0 0 20 20">
  <path id="Path_1323" data-name="Path 1323" d="M124.167,419.137a.834.834,0,0,1-.834-.834v-3.95a.8.8,0,0,0-.8-.8h-3.95a.833.833,0,0,1,0-1.667h3.95A2.465,2.465,0,0,1,125,414.353v3.95a.834.834,0,0,1-.833.834Zm0,0" transform="translate(-105 -411.89)" fill="#1688c9"/>
  <path id="Path_1324" data-name="Path 1324" d="M105.833,419.137A.834.834,0,0,1,105,418.3v-3.95a2.465,2.465,0,0,1,2.463-2.463h3.95a.833.833,0,0,1,0,1.667h-3.95a.8.8,0,0,0-.8.8v3.95a.834.834,0,0,1-.834.834Zm0,0" transform="translate(-105 -411.89)" fill="#1688c9"/>
  <path id="Path_1325" data-name="Path 1325" d="M122.537,431.89h-3.95a.834.834,0,0,1,0-1.667h3.95a.8.8,0,0,0,.8-.8v-3.95a.834.834,0,1,1,1.667,0v3.95a2.465,2.465,0,0,1-2.463,2.463Zm0,0" transform="translate(-105 -411.89)" fill="#1688c9"/>
  <path id="Path_1326" data-name="Path 1326" d="M111.413,431.89h-3.95A2.465,2.465,0,0,1,105,429.427v-3.95a.834.834,0,1,1,1.667,0v3.95a.8.8,0,0,0,.8.8h3.95a.834.834,0,0,1,0,1.667Zm0,0" transform="translate(-105 -411.89)" fill="#1688c9"/>
  <path id="Path_1327" data-name="Path 1327" d="M112.9,421.189H108.75a.832.832,0,0,1-.833-.833V415.64a.832.832,0,0,1,.833-.833H112.9a.833.833,0,0,1,.834.833v4.716a.834.834,0,0,1-.834.833Zm-3.315-1.667h2.482v-3.049h-2.482Zm0,0" transform="translate(-105 -411.89)" fill="#1688c9"/>
  <path id="Path_1328" data-name="Path 1328" d="M121.25,428.973h-3.958a.833.833,0,0,1-.834-.833v-2.652a.834.834,0,0,1,1.667,0v1.819h2.292v-2.5h-.985a.833.833,0,1,1,0-1.667h1.818a.832.832,0,0,1,.833.833v4.167a.832.832,0,0,1-.833.833Zm0,0" transform="translate(-105 -411.89)" fill="#1688c9"/>
  <path id="Path_1329" data-name="Path 1329" d="M121.25,419.883h-3.409a.834.834,0,0,1-.834-.834V415.64a.833.833,0,0,1,.834-.833h3.409a.832.832,0,0,1,.833.833v3.409a.833.833,0,0,1-.833.834Zm-2.576-1.667h1.743v-1.743h-1.743Zm0,0" transform="translate(-105 -411.89)" fill="#1688c9"/>
  <path id="Path_1330" data-name="Path 1330" d="M115.4,423.67H108.75a.834.834,0,0,1,0-1.667h5.815V416.4a.834.834,0,0,1,1.667,0v6.44a.834.834,0,0,1-.834.833Zm0,0" transform="translate(-105 -411.89)" fill="#1688c9"/>
  <path id="Path_1331" data-name="Path 1331" d="M117.708,423.462a.833.833,0,0,1-.833-.834v-1.136a.832.832,0,0,1,.833-.833h3.75a.833.833,0,1,1,0,1.667h-2.916v.3a.834.834,0,0,1-.834.834Zm0,0" transform="translate(-105 -411.89)" fill="#1688c9"/>
  <path id="Path_1332" data-name="Path 1332" d="M115.018,427.891a.833.833,0,0,1-.833-.834v-1.893a.834.834,0,0,1,1.667,0v1.893a.834.834,0,0,1-.834.834Zm0,0" transform="translate(-105 -411.89)" fill="#1688c9"/>
  <path id="Path_1333" data-name="Path 1333" d="M112.708,428.973H108.75a.832.832,0,0,1-.833-.833v-3.03a.832.832,0,0,1,.833-.833h3.958a.833.833,0,0,1,.834.833v3.03a.833.833,0,0,1-.834.833Zm-3.125-1.666h2.292v-1.364h-2.292Zm0,0" transform="translate(-105 -411.89)" fill="#1688c9"/>
</svg>