<svg xmlns="http://www.w3.org/2000/svg" xmlns:xlink="http://www.w3.org/1999/xlink" width="45.75" height="15.423" viewBox="0 0 45.75 15.423">
  <defs>
    <clipPath id="clip-path">
      <rect width="45.75" height="15.423" fill="none"/>
    </clipPath>
  </defs>
  <g id="Repeat_Grid_1" data-name="Repeat Grid 1" clip-path="url(#clip-path)">
    <g id="Group_1278" data-name="Group 1278" transform="translate(0.5 0.5)">
      <path id="Path_1363" data-name="Path 1363" d="M38.38,17.811c.054.023.1.046.148.064.157.058.312.121.471.169a11.763,11.763,0,0,0,4.251.472,8.052,8.052,0,0,0,2.109-.425A5.25,5.25,0,0,0,47.565,16.7a4.2,4.2,0,0,0,1.083-3.4,3.169,3.169,0,0,0-.958-1.925,6.615,6.615,0,0,0-1.525-1.11c-.506-.281-1.02-.549-1.527-.83a2.969,2.969,0,0,1-.755-.565A.854.854,0,0,1,43.9,7.618a1.727,1.727,0,0,1,.755-.437,4.162,4.162,0,0,1,1.4-.135,7.1,7.1,0,0,1,2.393.538c.086.035.172.073.264.112l.63-2.952a.319.319,0,0,0-.042-.021,9.728,9.728,0,0,0-2.992-.6A9.044,9.044,0,0,0,44.14,4.3,6.325,6.325,0,0,0,41.713,5.32a4.127,4.127,0,0,0-1.836,3.2,3.12,3.12,0,0,0,.639,2.144A5.035,5.035,0,0,0,42,11.963c.465.276.951.516,1.429.771a4.923,4.923,0,0,1,1.092.717,1.071,1.071,0,0,1,.381.76,1.09,1.09,0,0,1-.5.961,2.516,2.516,0,0,1-1.206.427,6.872,6.872,0,0,1-2.155-.121,8.193,8.193,0,0,1-1.9-.681l-.1-.045Z" transform="translate(-16.766 -4.122)" fill="#2b2d6c" stroke="rgba(0,0,0,0)" stroke-width="1"/>
      <path id="Path_1364" data-name="Path 1364" d="M34.332,4.571c-.041,0-.067,0-.093,0q-1.716,0-3.432,0c-.064,0-.089.018-.1.08-.129.611-.26,1.222-.391,1.833l-.851,3.982q-.424,1.983-.848,3.966-.393,1.836-.785,3.674c-.03.138-.059.276-.09.422H28.2q1.534,0,3.067,0c.066,0,.09-.017.1-.085.13-.62.265-1.237.4-1.857q.484-2.263.967-4.527.392-1.836.784-3.674.344-1.607.689-3.215C34.248,4.971,34.288,4.776,34.332,4.571Z" transform="translate(-12.213 -4.312)" fill="#2b2d6c" stroke="rgba(0,0,0,0)" stroke-width="1"/>
      <path id="Path_1365" data-name="Path 1365" d="M.6,4.927c.023-.1.049-.192.068-.289.01-.055.033-.074.09-.073.262,0,.523,0,.785,0H6.764a1.739,1.739,0,0,1,.885.212A1.712,1.712,0,0,1,8.5,6.008q.358,1.878.708,3.756.344,1.83.688,3.662c.038.2.077.4.12.624.019-.038.031-.059.041-.082l2.256-5.71q.714-1.807,1.429-3.614a.1.1,0,0,1,.109-.079q1.817,0,3.634,0l.076,0c-.011.033-.019.059-.03.085L12.063,17.686c-.107.256-.216.511-.32.768a.091.091,0,0,1-.1.068q-1.834,0-3.667,0c-.066,0-.087-.025-.1-.082Q6.9,14.67,5.928,10.9q-.469-1.815-.939-3.629c-.015-.06-.035-.119-.051-.179a1.5,1.5,0,0,0-.86-.981,12.29,12.29,0,0,0-2.131-.8C1.5,5.19,1.049,5.088.6,4.976Z" transform="translate(-0.6 -4.312)" fill="#2b2d6c" stroke="rgba(0,0,0,0)" stroke-width="1"/>
      <path id="Path_1366" data-name="Path 1366" d="M56.058,18.516l.513-1.225,3.2-7.638c.563-1.344,1.122-2.689,1.69-4.031a1.613,1.613,0,0,1,1.593-1.054c.985-.005,1.97,0,2.954,0,.065,0,.088.02.1.081q.414,1.989.83,3.978.367,1.76.736,3.52l.832,3.986q.24,1.147.479,2.294c.006.028.009.057.014.092H65.668q-.067-.318-.134-.638c-.1-.461-.2-.922-.289-1.385-.013-.064-.049-.058-.092-.058H62.173c-.5,0-1,0-1.5,0a.091.091,0,0,0-.1.073c-.232.646-.466,1.292-.7,1.938-.018.051-.038.077-.1.077q-1.821,0-3.643,0C56.112,18.521,56.091,18.519,56.058,18.516ZM63.546,8.372h-.02l-1.885,5.2h2.99Z" transform="translate(-24.33 -4.312)" fill="#2b2d6c" stroke="rgba(0,0,0,0)" stroke-width="1"/>
      <path id="Path_1367" data-name="Path 1367" d="M38.38,17.811l.655-3.058.1.045a8.193,8.193,0,0,0,1.9.681,6.872,6.872,0,0,0,2.155.121,2.516,2.516,0,0,0,1.206-.427,1.09,1.09,0,0,0,.5-.961,1.071,1.071,0,0,0-.381-.76,4.923,4.923,0,0,0-1.092-.717c-.477-.255-.963-.5-1.429-.771a5.035,5.035,0,0,1-1.484-1.3,3.12,3.12,0,0,1-.639-2.144,4.127,4.127,0,0,1,1.836-3.2A6.325,6.325,0,0,1,44.14,4.3a9.044,9.044,0,0,1,2.172-.175,9.728,9.728,0,0,1,2.992.6.319.319,0,0,1,.042.021L48.715,7.7c-.092-.039-.178-.077-.264-.112a7.1,7.1,0,0,0-2.393-.538,4.162,4.162,0,0,0-1.4.135,1.727,1.727,0,0,0-.755.437.854.854,0,0,0-.018,1.245,2.969,2.969,0,0,0,.755.565c.507.281,1.021.549,1.527.83a6.615,6.615,0,0,1,1.525,1.11,3.169,3.169,0,0,1,.958,1.925,4.2,4.2,0,0,1-1.083,3.4,5.25,5.25,0,0,1-2.206,1.393,8.052,8.052,0,0,1-2.109.425A11.763,11.763,0,0,1,39,18.043c-.16-.048-.315-.111-.471-.169C38.48,17.857,38.434,17.834,38.38,17.811Z" transform="translate(-16.766 -4.122)" fill="#2b2d6c" stroke="rgba(0,0,0,0)" stroke-width="1"/>
      <path id="Path_1368" data-name="Path 1368" d="M34.332,4.571c-.043.205-.084.4-.125.595q-.344,1.607-.689,3.215-.393,1.836-.784,3.674-.484,2.264-.967,4.527c-.133.619-.268,1.237-.4,1.857-.014.068-.038.085-.1.085q-1.534,0-3.067,0H27.74c.031-.146.06-.284.09-.422q.392-1.837.785-3.674.424-1.983.848-3.966l.851-3.982c.13-.611.262-1.222.391-1.833.013-.061.038-.08.1-.08q1.715,0,3.432,0C34.265,4.567,34.291,4.569,34.332,4.571Z" transform="translate(-12.213 -4.312)" fill="#2b2d6c" stroke="rgba(0,0,0,0)" stroke-width="1"/>
    </g>
  </g>
</svg>